<svg width="170" height="169" viewBox="0 0 170 169" fill="none" xmlns="http://www.w3.org/2000/svg">
<path d="M42.4471 109.265C42.5155 109.231 42.7452 109.423 42.9633 109.696C43.1813 109.968 43.2949 110.226 43.2213 110.264C43.1478 110.303 42.9284 110.112 42.7052 109.834C42.482 109.556 42.3787 109.304 42.4471 109.265Z" fill="#56606D"/>
<path d="M40.042 104.948C40.348 105.26 40.5755 105.622 40.7104 106.011C40.9323 106.369 41.0682 106.761 41.1104 107.164C40.8044 106.852 40.5765 106.491 40.4407 106.101C40.2141 105.745 40.0782 105.352 40.042 104.948Z" fill="#56606D"/>
<path d="M38.7349 100.298C39.0977 101.043 39.2735 101.845 39.2511 102.652C39.0271 102.295 38.8914 101.902 38.8524 101.499C38.7198 101.109 38.6799 100.701 38.7349 100.298Z" fill="#56606D"/>
<path d="M38.5376 95.5166C38.6719 95.9045 38.7158 96.3111 38.6666 96.7133C38.7078 97.1179 38.6503 97.5253 38.4976 97.91C38.3618 97.5208 38.3179 97.1126 38.3685 96.7089C38.3259 96.3058 38.3835 95.8995 38.5376 95.5166Z" fill="#56606D"/>
<path d="M39.4432 90.7979C39.4892 91.2013 39.4378 91.6086 39.2922 91.9946C39.2362 92.3968 39.0871 92.7856 38.8535 93.1386C38.808 92.7351 38.8593 92.3279 39.0044 91.9419C39.0622 91.5399 39.2112 91.1514 39.4432 90.7979Z" fill="#56606D"/>
<path d="M41.4687 86.3379C41.4159 86.7411 41.2647 87.1303 41.0248 87.4809C40.8714 87.8647 40.6307 88.2191 40.3164 88.5239C40.3722 88.1213 40.5232 87.7325 40.7603 87.3809C41.0803 86.7672 41.3951 86.3039 41.4687 86.3379Z" fill="#56606D"/>
<path d="M44.5669 82.347C44.4118 82.7298 44.1668 83.0816 43.8469 83.3813C43.5955 83.7243 43.2733 84.026 42.8959 84.2716C42.8185 84.2288 43.154 83.7688 43.6108 83.233C44.0675 82.6973 44.5063 82.3053 44.5669 82.347Z" fill="#56606D"/>
<path d="M48.3494 78.8043C48.4049 78.8526 48.0178 79.2786 47.4823 79.7573C46.9468 80.236 46.4642 80.5851 46.4087 80.5368C46.3532 80.4885 46.7339 80.0625 47.2745 79.5838C47.8152 79.1052 48.2926 78.7527 48.3494 78.8043Z" fill="#56606D"/>
<path d="M52.3068 75.3974C52.3635 75.4457 51.97 75.8662 51.4242 76.335C50.8783 76.8038 50.3919 77.1485 50.3325 77.1035C50.2732 77.0585 50.6706 76.6347 51.2164 76.1648C51.7622 75.6949 52.25 75.3502 52.3068 75.3974Z" fill="#56606D"/>
<path d="M56.0068 71.79C56.0752 71.8329 55.7255 72.283 55.2325 72.7946C54.7396 73.3062 54.288 73.6894 54.2261 73.6422C54.4023 73.2649 54.6685 72.9229 55.008 72.6376C55.4893 72.1304 55.9448 71.7516 56.0068 71.79Z" fill="#56606D"/>
<path d="M58.8752 67.6836C58.8255 68.0898 58.6637 68.4803 58.4029 68.8232C58.0429 69.4161 57.6545 69.8476 57.5874 69.8113C57.8991 69.0552 58.3334 68.3397 58.8778 67.6858L58.8752 67.6836Z" fill="#56606D"/>
<path d="M60.2418 63.0615C60.3605 63.869 60.2004 64.6884 59.7811 65.4198C59.7523 65.0189 59.7998 64.6166 59.9217 64.2286C59.9557 63.8277 60.0637 63.4338 60.2418 63.0615Z" fill="#56606D"/>
<path d="M59.8262 58.3044C60.0756 58.6532 60.2184 59.0495 60.2417 59.4572C60.3626 59.8527 60.3683 60.2672 60.2585 60.6649C60.0809 60.2909 59.978 59.8942 59.954 59.4913C59.8363 59.1041 59.7931 58.7033 59.8262 58.3044Z" fill="#56606D"/>
<path d="M57.6177 53.9259C57.6861 53.8886 58.0951 54.3047 58.468 54.8932C58.7348 55.2335 58.8988 55.6245 58.9454 56.0317C58.8667 56.0602 58.5738 55.5859 58.2086 55.0128C57.9473 54.6784 57.748 54.3118 57.6177 53.9259Z" fill="#56606D"/>
<path d="M53.6976 50.5281C54.1584 50.6458 54.5764 50.8615 54.9119 51.155C55.5196 51.5854 55.9132 52.0168 55.8525 52.0585C55.7919 52.1003 55.3119 51.7621 54.7209 51.346C54.1299 50.9299 53.646 50.5863 53.6976 50.5281Z" fill="#56606D"/>
<path d="M48.5854 48.5849C49.0663 48.5587 49.5473 48.6341 49.9855 48.8045C50.4536 48.8973 50.887 49.0883 51.2462 49.36C50.7772 49.3133 50.3197 49.2048 49.89 49.0384C49.4273 48.9533 48.9858 48.7998 48.5854 48.5849Z" fill="#56606D"/>
<path d="M42.9932 48.3694C43.4234 48.187 43.9014 48.1015 44.3816 48.1213C44.8594 48.0607 45.3476 48.1033 45.801 48.2453C44.873 48.3692 43.9325 48.4108 42.9944 48.3694H42.9932Z" fill="#56606D"/>
<path d="M37.8066 50.1305C37.7615 50.0778 38.2453 49.7144 38.9383 49.3982C39.338 49.1689 39.8008 49.0319 40.2815 49.0007C39.9187 49.2564 39.5129 49.4644 39.0776 49.6178C38.6857 49.8406 38.2574 50.0133 37.8066 50.1305Z" fill="#56606D"/>
<path d="M33.9429 53.5716C34.0658 53.1754 34.3036 52.8119 34.6345 52.5143C35.1184 51.984 35.6126 51.636 35.6668 51.6821C35.4575 52.0436 35.1861 52.3766 34.8616 52.6702C34.3919 53.1796 34.01 53.6067 33.9429 53.5716Z" fill="#56606D"/>
<path d="M32.0476 58.0408C31.9582 57.6372 31.9951 57.2207 32.1547 56.8331C32.2231 56.4276 32.4129 56.0439 32.7057 55.7188C32.6904 56.1199 32.6034 56.5168 32.4476 56.8957C32.3843 57.2926 32.2494 57.6789 32.0476 58.0408Z" fill="#56606D"/>
<path d="M32.7179 62.7542C32.2109 62.0612 31.9785 61.2481 32.0547 60.4343C32.2549 60.7978 32.3893 61.185 32.4534 61.5827C32.6087 61.96 32.6978 62.3548 32.7179 62.7542Z" fill="#56606D"/>
<path d="M35.5701 66.8504C35.5081 66.8933 35.0462 66.5211 34.5855 65.9798C34.2654 65.6746 34.0409 65.3057 33.9326 64.9072C34.0062 64.8731 34.3778 65.3046 34.8281 65.8349C35.1371 66.1378 35.3876 66.4806 35.5701 66.8504Z" fill="#56606D"/>
<path d="M39.7084 70.0813C39.2542 69.954 38.8405 69.7395 38.4993 69.4544C37.8929 69.0383 37.4671 68.6266 37.5212 68.5761C37.5754 68.5256 38.0787 68.844 38.6826 69.2612C39.2864 69.6784 39.76 70.0242 39.7084 70.0813Z" fill="#56606D"/>
<path d="M44.5837 72.4595C44.1131 72.395 43.6632 72.2485 43.2624 72.0291C42.5656 71.7283 42.0365 71.4362 42.0752 71.3704C42.5442 71.4398 42.9929 71.586 43.3965 71.8007C43.8406 71.9497 44.2444 72.1738 44.5837 72.4595Z" fill="#56606D"/>
<path d="M49.9397 73.9099C48.9839 73.9217 48.0419 73.7151 47.2119 73.3115C48.1516 73.3921 49.0714 73.5939 49.9397 73.9099Z" fill="#56606D"/>
<path d="M55.5402 74.1531C55.0987 74.3126 54.6182 74.3782 54.1402 74.3442C53.663 74.392 53.1793 74.3431 52.7285 74.2014C53.1866 74.0969 53.6623 74.0598 54.135 74.0917C54.6042 74.0453 55.0791 74.0661 55.5402 74.1531Z" fill="#56606D"/>
<path d="M60.9523 72.9238C60.5967 73.199 60.1661 73.3944 59.6994 73.4925C59.2641 73.6685 58.7846 73.7507 58.3032 73.7319C58.6997 73.5144 59.1357 73.3542 59.5936 73.2576C60.0203 73.0801 60.4801 72.9671 60.9523 72.9238Z" fill="#56606D"/>
<path d="M65.6408 70.3069C65.6976 70.3541 65.2705 70.7603 64.6446 71.1676C64.2944 71.4473 63.8698 71.6507 63.4072 71.7605C63.362 71.7034 63.8511 71.3686 64.4653 70.9667C64.8145 70.6962 65.2111 70.4735 65.6408 70.3069Z" fill="#56606D"/>
<path d="M69.3057 66.689C69.1767 67.083 68.9397 67.4453 68.6141 67.7463C68.1418 68.282 67.6747 68.6509 67.6128 68.6026C67.5509 68.5543 67.9173 68.1184 68.378 67.5926C68.8386 67.0667 69.2386 66.6506 69.3057 66.689Z" fill="#56606D"/>
<path d="M71.7409 62.3816C71.7377 62.7908 71.6177 63.1932 71.3912 63.5541C71.2541 63.9448 71.0135 64.3035 70.688 64.6026C70.7562 64.2038 70.9023 63.8175 71.1203 63.4597C71.2565 63.0739 71.4661 62.7097 71.7409 62.3816Z" fill="#56606D"/>
<path d="M72.8299 57.6938C72.9503 58.4985 72.8167 59.3159 72.4428 60.062C72.4295 59.2605 72.5601 58.4619 72.8299 57.6938Z" fill="#56606D"/>
<path d="M72.6846 52.9155C72.866 53.2898 72.9538 53.6921 72.9427 54.0969C73.031 54.4954 73.0174 54.9054 72.9027 55.2991C72.7246 54.9236 72.6369 54.5215 72.6446 54.1166C72.5646 53.718 72.5782 53.3097 72.6846 52.9155Z" fill="#56606D"/>
<path d="M71.463 48.2454C71.7229 48.5869 71.8985 48.9697 71.9792 49.3707C72.1485 49.7491 72.2249 50.153 72.2037 50.5575C71.9438 50.2161 71.7682 49.8332 71.6876 49.4322C71.5179 49.0539 71.4415 48.6499 71.463 48.2454Z" fill="#56606D"/>
<path d="M69.3096 43.8232C69.3831 43.7903 69.7199 44.2492 70.058 44.8475C70.2948 45.2008 70.442 45.5924 70.4902 45.997C70.1771 45.6923 69.9381 45.3378 69.787 44.954C69.5441 44.6066 69.382 44.2227 69.3096 43.8232Z" fill="#56606D"/>
<path d="M66.542 39.6552C66.6104 39.6212 66.9859 40.0526 67.3807 40.6268C67.6636 40.954 67.8627 41.328 67.9652 41.7247C67.614 41.4507 67.3294 41.1205 67.1278 40.7531C66.852 40.4223 66.6531 40.0496 66.542 39.6552Z" fill="#56606D"/>
<path d="M63.7568 35.4962C63.8304 35.4622 64.1891 35.9079 64.5659 36.4843C64.8382 36.8161 65.0259 37.1927 65.1169 37.5899C64.7715 37.3104 64.4963 36.9743 64.3078 36.6018C64.0366 36.2695 63.849 35.8931 63.7568 35.4962Z" fill="#56606D"/>
<path d="M61.5547 31.0938C62.0622 31.7744 62.3975 32.5375 62.5392 33.3346C62.0317 32.6539 61.6964 31.8908 61.5547 31.0938Z" fill="#56606D"/>
<path d="M60.6005 26.3899C60.7648 26.7684 60.8487 27.1688 60.8483 27.5723C60.9422 27.9677 60.9592 28.3734 60.8986 28.7734C60.6767 28.411 60.5607 28.0084 60.5605 27.5998C60.4627 27.1994 60.4764 26.785 60.6005 26.3899Z" fill="#56606D"/>
<path d="M61.0658 21.6282C61.114 22.0291 61.0795 22.4341 60.9639 22.8249C60.9406 23.2274 60.8381 23.6238 60.6606 23.9974C60.5466 23.1911 60.6865 22.3734 61.0658 21.6282Z" fill="#56606D"/>
<path d="M62.8967 17.1101C62.8255 17.5094 62.6732 17.895 62.4464 18.2497C62.3076 18.6353 62.0929 18.998 61.8115 19.3224C61.8255 18.9142 61.9505 18.5144 62.1767 18.1542C62.3159 17.7625 62.5627 17.4046 62.8967 17.1101Z" fill="#56606D"/>
<path d="M66.0309 13.1486C66.0928 13.1969 65.7225 13.6262 65.2502 14.1488C64.778 14.6714 64.378 15.082 64.3096 15.0436C64.4466 14.6517 64.6897 14.2926 65.0193 13.9951C65.4967 13.4681 65.9754 13.1047 66.0309 13.1486Z" fill="#56606D"/>
<path d="M70.256 10C70.3012 10.0582 69.8173 10.3974 69.2044 10.7993C68.5915 11.2011 68.0857 11.5129 68.0289 11.458C67.9721 11.4031 68.407 11.0035 69.025 10.5962C69.3754 10.3188 69.7969 10.1147 70.256 10Z" fill="#56606D"/>
<path d="M28.1851 122.059C27.1851 100.469 57.6401 73.376 83.8581 77.866C111.558 82.613 135.845 142.617 109.598 162.822C83.3511 183.027 29.1901 143.955 28.1851 122.059Z" fill="#DBF5E7"/>
<path d="M133.26 103.376C130.754 106.003 147.036 129.176 153.025 129.994C159.014 130.812 158.504 116.385 154.532 109.778C150.56 103.171 136.5 99.9738 133.26 103.376Z" fill="#12CA9E"/>
<path d="M142.497 49.2669C137.715 46.6919 132.381 51.6579 129.254 54.6009C122.081 61.5899 116.011 69.6829 109.205 77.0399C101.664 85.1339 94.6748 93.2259 86.9488 101.14C82.5348 105.555 77.7488 110.34 74.8098 115.855C68.1888 109.417 62.4868 102.428 55.1298 96.7259C49.7948 92.6799 40.9668 89.7369 41.1508 99.4849C41.5188 112.177 52.7388 125.785 61.0158 134.432C64.5108 138.111 69.1088 141.974 74.4428 142.158C80.8798 142.526 87.5028 134.8 91.3648 130.57C98.1698 123.213 103.688 114.936 109.942 107.395C118.035 97.4619 126.312 87.7139 134.221 77.5949C139.187 71.3379 154.82 55.8889 142.497 49.2669ZM49.2488 98.7439C48.9911 98.7358 48.7363 98.7995 48.5128 98.9279C47.8113 98.7647 47.1321 98.5176 46.4898 98.1919C47.0385 97.8245 47.9581 98.0085 49.2488 98.7439Z" fill="#12CA9E"/>
<path d="M133 0L135.833 8.78529H145L137.582 14.2147L140.415 23L133 17.5706L125.585 23L128.417 14.2147L121 8.78529H130.167L133 0Z" fill="#12CA9E"/>
<path d="M164.204 60.812L165.482 64.745H169.619L166.272 67.176L167.551 71.11L164.204 68.679L160.857 71.11L162.136 67.176L158.789 64.745H162.926L164.204 60.812Z" fill="#F89C13"/>
<path d="M94.1362 35.4131L95.4142 39.3461H99.5512L96.2042 41.7771L97.4832 45.7111L94.1362 43.2801L90.7892 45.7111L92.0682 41.7771L88.7212 39.3461H92.8582L94.1362 35.4131Z" fill="#12CA9E"/>
<path d="M30.2001 24.9028L31.4781 28.8358H35.6152L32.2682 31.2668L33.5471 35.2008L30.2001 32.7698L26.8531 35.2008L28.1322 31.2668L24.7852 28.8358H28.9221L30.2001 24.9028Z" fill="#F89C13"/>
<path d="M12.5034 74L15.4537 82.7855H25L17.2756 88.2145L20.2261 97L12.5034 91.571L4.77395 97L7.72438 88.2145L0 82.7855H9.54626L12.5034 74Z" fill="#12CA9E"/>
</svg>
