<svg width="18" height="12" viewBox="0 0 18 12" fill="none" xmlns="http://www.w3.org/2000/svg">
<path d="M18.0002 10.5V1.5C18.0002 0.67 17.3302 0 16.5002 0H2.49023C1.66023 0 0.990234 0.67 0.990234 1.5V10.5C0.990234 11.33 1.66023 12 2.49023 12H16.5002C17.3302 12 18.0002 11.33 18.0002 10.5ZM16.6902 1.39C17.0202 1.72 16.8402 2.06 16.6602 2.23L12.6002 5.95L16.5002 10.01C16.6202 10.15 16.7002 10.37 16.5602 10.52C16.4302 10.68 16.1302 10.67 16.0002 10.57L11.6302 6.84L9.49023 8.79L7.36023 6.84L2.99023 10.57C2.86023 10.67 2.56023 10.68 2.43023 10.52C2.29023 10.37 2.37023 10.15 2.49023 10.01L6.39023 5.95L2.33023 2.23C2.15023 2.06 1.97023 1.72 2.30023 1.39C2.63023 1.06 2.97023 1.22 3.25023 1.46L9.49023 6.5L15.7402 1.46C16.0202 1.22 16.3602 1.06 16.6902 1.39Z" fill="#12CA9E"/>
</svg>
