<svg width="20" height="20" viewBox="0 0 20 20" fill="none" xmlns="http://www.w3.org/2000/svg">
<path d="M12.8563 2C12.0533 1.99982 11.2614 2.18775 10.5441 2.54875C9.82675 2.90974 9.20395 3.43376 8.72559 4.07881C8.24723 4.72386 7.92661 5.472 7.78941 6.26328C7.65222 7.05456 7.70227 7.86698 7.93556 8.63543L2 14.5714V18H5.42832L11.3639 12.064C12.0712 12.2787 12.8165 12.3384 13.549 12.239C14.2814 12.1396 14.9839 11.8835 15.6084 11.488C16.2329 11.0926 16.7649 10.5671 17.168 9.94749C17.5711 9.32785 17.8359 8.62858 17.9444 7.89733C18.0528 7.16609 18.0023 6.42006 17.7964 5.71008C17.5905 5.00011 17.2339 4.34288 16.751 3.78318C16.2681 3.22348 15.6703 2.77447 14.9982 2.46675C14.3261 2.15903 13.5955 1.99983 12.8563 2ZM12.8563 11.1429C12.4629 11.1426 12.0717 11.0845 11.6953 10.9703L11.0399 10.7714L10.5559 11.2554L8.73836 13.0731L7.95041 12.2857L7.14247 13.0937L7.93042 13.8817L7.0242 14.788L6.23626 14L5.42832 14.808L6.21626 15.596L4.95521 16.8571H3.14277V15.0446L8.7435 9.44343L9.22803 8.95943L9.02919 8.304C8.78497 7.49885 8.80083 6.63719 9.07453 5.84158C9.34823 5.04597 9.86581 4.35693 10.5537 3.87247C11.2415 3.38801 12.0646 3.13281 12.9059 3.14316C13.7471 3.15351 14.5637 3.42889 15.2394 3.93012C15.9151 4.43136 16.4156 5.13293 16.6697 5.93503C16.9237 6.73713 16.9184 7.59892 16.6544 8.39782C16.3905 9.19671 15.8813 9.89203 15.1994 10.3849C14.5176 10.8777 13.6976 11.1429 12.8563 11.1429Z" fill="#12CA9E"/>
<path d="M13.75 7.5C14.4404 7.5 15 6.94036 15 6.25C15 5.55964 14.4404 5 13.75 5C13.0596 5 12.5 5.55964 12.5 6.25C12.5 6.94036 13.0596 7.5 13.75 7.5Z" fill="#1DD969"/>
</svg>
