<svg width="12" height="12" viewBox="0 0 12 12" fill="none" xmlns="http://www.w3.org/2000/svg">
<g clip-path="url(#clip0)">
<path d="M11.4546 0H7.09098C6.78974 0 6.54552 0.244219 6.54552 0.545461C6.54552 0.846703 6.78974 1.09092 7.09098 1.09092H10.1378L4.5235 6.70524C4.31053 6.91821 4.31053 7.26359 4.5235 7.47661C4.62998 7.58309 4.76957 7.63636 4.90917 7.63636C5.04876 7.63636 5.18838 7.58309 5.29483 7.47659L10.9092 1.8623V4.9091C10.9092 5.21034 11.1534 5.45456 11.4546 5.45456C11.7559 5.45456 12.0001 5.21034 12.0001 4.9091V0.545461C12.0001 0.244219 11.7559 0 11.4546 0Z" fill="#12CA9E"/>
<path d="M9.27272 5.45485C8.97148 5.45485 8.72726 5.69907 8.72726 6.00031V10.9094H1.0909V3.27303H6C6.30124 3.27303 6.54546 3.02881 6.54546 2.72757C6.54546 2.42632 6.30124 2.18213 6 2.18213H0.545461C0.244219 2.18213 0 2.42635 0 2.72759V11.4549C0 11.7561 0.244219 12.0003 0.545461 12.0003H9.27274C9.57398 12.0003 9.8182 11.7561 9.8182 11.4548V6.00031C9.81818 5.69907 9.57396 5.45485 9.27272 5.45485Z" fill="#12CA9E"/>
</g>
<defs>
<clipPath id="clip0">
<rect width="12" height="12" fill="white"/>
</clipPath>
</defs>
</svg>
